<?xml version="1.0" encoding="utf-8"?>
<!-- Generator: Adobe Illustrator 18.1.1, SVG Export Plug-In . SVG Version: 6.00 Build 0)  -->
<svg version="1.1" id="Capa_1" xmlns="http://www.w3.org/2000/svg" xmlns:xlink="http://www.w3.org/1999/xlink" x="0px" y="0px"
	 viewBox="100 -8 376 393.3" enable-background="new 100 -8 376 393.3" xml:space="preserve">
<g>
	<path fill="#999999" d="M288,0c-98.4,0-180,79.2-180,180c0,98.4,79.2,180,180,180c98.4,0,180-79.2,180-180S388.8,0,288,0z
		 M288,344.9c-91.6,0-165.3-73.8-165.3-165.3S196.5,14.3,288,14.3s165.3,73.8,165.3,165.3S379.6,344.9,288,344.9z"/>
	<path fill="#999999" d="M273.1,110.9c-3.7-3.7-9.3-3.7-13,0s-3.7,9.3,0,13l53.8,53.8l-53.8,53.8c-3.7,3.7-3.7,9.3,0,13
		s9.3,3.7,13,0l59.3-59.3c1.8-1.8,1.8-3.7,1.8-7.4c0-1.8,0-5.5-1.8-7.4L273.1,110.9z"/>
</g>
</svg>
