<svg version="1.1" xmlns="http://www.w3.org/2000/svg" xmlns:xlink="http://www.w3.org/1999/xlink" x="0px" y="0px"
   viewBox="0 0 156 155.8" enable-background="new 0 0 156 155.8" xml:space="preserve">
<g id="Layer_2" display="none">
  <rect x="-46" y="-33.9" display="inline" fill="#00AEEF" width="270.2" height="230.8"/>
</g>
<g id="Layer_1">
  <g id="e7N7ny.tif">
    <g>
      <path d="M0,69.2C0,31.6,26.2,3.1,60.6,0c32.9-3,64,20.6,70.1,53.2c3,16.1,0.6,31.5-8,45.6c-2,3.4-1.8,5.3,1,8
        c9.6,9.2,19,18.7,28.3,28.2c5.7,5.8,5.1,13.6-1.1,18.3c-4.9,3.7-10.8,3.2-15.8-1.6c-9.4-9.2-18.8-18.4-27.9-27.9
        c-2.8-2.9-4.7-3.3-8.4-1.2c-21.7,12.3-43.8,12.5-65.5,0.4C11.3,110.6,1.3,90.7,0,69.2z M24,65.1c-0.4,23,18.1,42.1,41.2,42.7
        c22.9,0.5,42.2-18,42.8-41.1c0.6-23.2-18.2-42.6-41.4-42.9C43.5,23.5,24.4,42.1,24,65.1z"/>
    </g>
  </g>
</g>
</svg>
