<?xml version="1.0" encoding="utf-8"?>
<!-- Generator: Adobe Illustrator 18.1.1, SVG Export Plug-In . SVG Version: 6.00 Build 0)  -->
<svg version="1.1" id="Layer_1" xmlns="http://www.w3.org/2000/svg" xmlns:xlink="http://www.w3.org/1999/xlink" x="0px" y="0px"
	 viewBox="108 10 146.3 120.5" enable-background="new 108 10 146.3 120.5" xml:space="preserve">
<g id="jLe0rI.tif">
	<g>
		<path fill="#65C7C1" d="M108,118c15.8,0.2,30.2-3.4,43.1-13.5c-13.7-1.4-23-8.1-28.1-21.1c4.5,0,8.6,0,12.7,0
			c-14.2-5.4-22.4-14.9-23.3-30.2c4.4,1.2,8.4,2.3,12.5,3.3c-13-14.3-16.1-29.5-8-40.4c16.4,19,36.9,29.6,62.2,31.4
			c0-4.3-0.5-8.4,0.1-12.4c1.9-11.6,8.9-19.5,19.8-23.3s21.2-1.9,30,5.9c1.6,1.4,3.1,2,5.1,1.3c5.2-1.9,10.3-3.7,15.7-5.7
			c-1.9,6.4-6.2,11.1-11.6,14.9c0.1,0.3,0.2,0.6,0.3,0.8c5.1-1.3,10.1-2.6,15.2-3.9c0.2,0.2,0.4,0.4,0.6,0.6
			c-4.4,4.3-8.9,8.6-13.2,13c-0.8,0.8-1.5,2.1-1.5,3.2c0.1,24.2-8.4,45.1-24.7,62.8c-13,14-29.3,21.9-48.3,24.7
			c-18.8,2.8-36.7,0-53.6-8.7C111.3,119.9,109.7,118.9,108,118z"/>
	</g>
</g>
</svg>
